<mxfile host="app.diagrams.net" modified="2023-01-31T12:49:53.510Z" agent="5.0 (Windows NT 10.0; Win64; x64) AppleWebKit/537.36 (KHTML, like Gecko) Chrome/109.0.0.0 Safari/537.36" etag="hRXFvrRIc24why6ZH0Ku" version="20.8.13" type="github">
  <diagram id="prtHgNgQTEPvFCAcTncT" name="Page-1">
    <mxGraphModel dx="1050" dy="549" grid="1" gridSize="10" guides="1" tooltips="1" connect="1" arrows="1" fold="1" page="1" pageScale="1" pageWidth="827" pageHeight="1169" math="0" shadow="0">
      <root>
        <mxCell id="0" />
        <mxCell id="1" parent="0" />
        <mxCell id="dDt2gNIv2R4sC2URoS2b-1" value="Génération du formulaire" style="whiteSpace=wrap;html=1;aspect=fixed;" vertex="1" parent="1">
          <mxGeometry x="120" y="10" width="120" height="120" as="geometry" />
        </mxCell>
        <mxCell id="dDt2gNIv2R4sC2URoS2b-2" value="" style="endArrow=classic;html=1;rounded=0;exitX=0.5;exitY=1;exitDx=0;exitDy=0;" edge="1" parent="1" source="dDt2gNIv2R4sC2URoS2b-1" target="dDt2gNIv2R4sC2URoS2b-4">
          <mxGeometry width="50" height="50" relative="1" as="geometry">
            <mxPoint x="390" y="300" as="sourcePoint" />
            <mxPoint x="240" y="110" as="targetPoint" />
          </mxGeometry>
        </mxCell>
        <mxCell id="dDt2gNIv2R4sC2URoS2b-4" value="Initialisation des attributs dans le formulaire suivi d&#39;une exécution des BRs&lt;br&gt;&lt;br&gt;&lt;br&gt;&lt;b&gt;&lt;font color=&quot;#990000&quot;&gt;PHASE : INIT&lt;/font&gt;&lt;/b&gt;" style="whiteSpace=wrap;html=1;aspect=fixed;" vertex="1" parent="1">
          <mxGeometry x="115" y="170" width="130" height="130" as="geometry" />
        </mxCell>
        <mxCell id="dDt2gNIv2R4sC2URoS2b-9" value="" style="edgeStyle=orthogonalEdgeStyle;rounded=0;orthogonalLoop=1;jettySize=auto;html=1;fontColor=#990000;" edge="1" parent="1" source="dDt2gNIv2R4sC2URoS2b-5" target="dDt2gNIv2R4sC2URoS2b-8">
          <mxGeometry relative="1" as="geometry" />
        </mxCell>
        <mxCell id="dDt2gNIv2R4sC2URoS2b-5" value="Vérification si le block est affiché et exécution des BRs&lt;br&gt;&amp;nbsp;(onCheckBlock)&lt;br&gt;&lt;br&gt;&lt;br&gt;&lt;font color=&quot;#990000&quot;&gt;&lt;b&gt;PHASE : VALIDATION&lt;/b&gt;&lt;/font&gt;" style="whiteSpace=wrap;html=1;" vertex="1" parent="1">
          <mxGeometry x="115" y="360" width="130" height="130" as="geometry" />
        </mxCell>
        <mxCell id="dDt2gNIv2R4sC2URoS2b-6" value="" style="endArrow=classic;html=1;rounded=0;fontColor=#990000;entryX=0.5;entryY=0;entryDx=0;entryDy=0;exitX=0.5;exitY=1;exitDx=0;exitDy=0;" edge="1" parent="1" source="dDt2gNIv2R4sC2URoS2b-4" target="dDt2gNIv2R4sC2URoS2b-5">
          <mxGeometry width="50" height="50" relative="1" as="geometry">
            <mxPoint x="455" y="245" as="sourcePoint" />
            <mxPoint x="440" y="200" as="targetPoint" />
          </mxGeometry>
        </mxCell>
        <mxCell id="dDt2gNIv2R4sC2URoS2b-11" style="edgeStyle=orthogonalEdgeStyle;rounded=0;orthogonalLoop=1;jettySize=auto;html=1;exitX=0.5;exitY=1;exitDx=0;exitDy=0;entryX=0.5;entryY=0;entryDx=0;entryDy=0;fontColor=#000000;" edge="1" parent="1" source="dDt2gNIv2R4sC2URoS2b-8" target="dDt2gNIv2R4sC2URoS2b-10">
          <mxGeometry relative="1" as="geometry" />
        </mxCell>
        <mxCell id="dDt2gNIv2R4sC2URoS2b-8" value="Exécution initiale&lt;br&gt;&amp;nbsp;des business rule&lt;br&gt;(ng-init)&lt;br&gt;&lt;font color=&quot;#990000&quot;&gt;&lt;b&gt;PHASE :&amp;nbsp;CHANGE&lt;/b&gt;&lt;/font&gt;&lt;br&gt;&amp;nbsp;" style="rhombus;whiteSpace=wrap;html=1;" vertex="1" parent="1">
          <mxGeometry x="103.75" y="530" width="152.5" height="180" as="geometry" />
        </mxCell>
        <mxCell id="dDt2gNIv2R4sC2URoS2b-13" value="" style="edgeStyle=orthogonalEdgeStyle;rounded=0;orthogonalLoop=1;jettySize=auto;html=1;fontColor=#000000;" edge="1" parent="1" source="dDt2gNIv2R4sC2URoS2b-10" target="dDt2gNIv2R4sC2URoS2b-12">
          <mxGeometry relative="1" as="geometry" />
        </mxCell>
        <mxCell id="dDt2gNIv2R4sC2URoS2b-15" value="" style="edgeStyle=orthogonalEdgeStyle;rounded=0;orthogonalLoop=1;jettySize=auto;html=1;fontColor=#990000;" edge="1" parent="1" source="dDt2gNIv2R4sC2URoS2b-10" target="dDt2gNIv2R4sC2URoS2b-14">
          <mxGeometry relative="1" as="geometry" />
        </mxCell>
        <mxCell id="dDt2gNIv2R4sC2URoS2b-10" value="&lt;font color=&quot;#000000&quot;&gt;Modification en cours d&#39;un attribut&lt;/font&gt;" style="whiteSpace=wrap;html=1;fontColor=#990000;" vertex="1" parent="1">
          <mxGeometry x="120" y="770" width="120" height="60" as="geometry" />
        </mxCell>
        <mxCell id="dDt2gNIv2R4sC2URoS2b-12" value="&lt;font color=&quot;#000000&quot;&gt;Exécution à chaque &lt;/font&gt;&lt;br&gt;&lt;font color=&quot;#000000&quot;&gt;changement de l&#39;input&lt;/font&gt;&lt;br&gt;&lt;font color=&quot;#000000&quot;&gt;(ng-change)&lt;/font&gt;&lt;br&gt;&lt;br&gt;&lt;b&gt;PHASE : VALIDATION&lt;/b&gt;" style="rhombus;whiteSpace=wrap;html=1;fontColor=#990000;" vertex="1" parent="1">
          <mxGeometry x="88.75" y="880" width="182.5" height="190" as="geometry" />
        </mxCell>
        <mxCell id="dDt2gNIv2R4sC2URoS2b-17" value="" style="edgeStyle=orthogonalEdgeStyle;rounded=0;orthogonalLoop=1;jettySize=auto;html=1;fontColor=#000000;" edge="1" parent="1" source="dDt2gNIv2R4sC2URoS2b-14" target="dDt2gNIv2R4sC2URoS2b-16">
          <mxGeometry relative="1" as="geometry" />
        </mxCell>
        <mxCell id="dDt2gNIv2R4sC2URoS2b-14" value="&lt;font color=&quot;#000000&quot;&gt;Modification de l&#39;attribut terminé&lt;/font&gt;" style="whiteSpace=wrap;html=1;fontColor=#990000;" vertex="1" parent="1">
          <mxGeometry x="320" y="770" width="120" height="60" as="geometry" />
        </mxCell>
        <mxCell id="dDt2gNIv2R4sC2URoS2b-19" value="" style="edgeStyle=orthogonalEdgeStyle;rounded=0;orthogonalLoop=1;jettySize=auto;html=1;fontColor=#990000;" edge="1" parent="1" source="dDt2gNIv2R4sC2URoS2b-16" target="dDt2gNIv2R4sC2URoS2b-18">
          <mxGeometry relative="1" as="geometry" />
        </mxCell>
        <mxCell id="dDt2gNIv2R4sC2URoS2b-16" value="&lt;font color=&quot;#000000&quot;&gt;&amp;nbsp; Exécution de BR &lt;br&gt;lors de la perte &lt;br&gt;de focus de l&#39;input&lt;/font&gt;&lt;br&gt;&lt;font color=&quot;#000000&quot;&gt;ng-blur&lt;br&gt;&lt;/font&gt;&lt;br&gt;&lt;b&gt;PHASE : CHANGE&lt;/b&gt;" style="rhombus;whiteSpace=wrap;html=1;fontColor=#990000;" vertex="1" parent="1">
          <mxGeometry x="470" y="693.75" width="190" height="212.5" as="geometry" />
        </mxCell>
        <mxCell id="dDt2gNIv2R4sC2URoS2b-21" value="" style="edgeStyle=orthogonalEdgeStyle;rounded=0;orthogonalLoop=1;jettySize=auto;html=1;fontColor=#000000;" edge="1" parent="1" source="dDt2gNIv2R4sC2URoS2b-18" target="dDt2gNIv2R4sC2URoS2b-20">
          <mxGeometry relative="1" as="geometry" />
        </mxCell>
        <mxCell id="dDt2gNIv2R4sC2URoS2b-18" value="&lt;font color=&quot;#000000&quot;&gt;Soumission d&#39;un block&lt;/font&gt;" style="whiteSpace=wrap;html=1;fontColor=#990000;" vertex="1" parent="1">
          <mxGeometry x="505" y="960" width="120" height="60" as="geometry" />
        </mxCell>
        <mxCell id="dDt2gNIv2R4sC2URoS2b-20" value="&lt;font color=&quot;#000000&quot;&gt;Exécution&amp;nbsp;de BR&lt;/font&gt;&lt;br&gt;&lt;font color=&quot;#000000&quot;&gt;lors de la soumission&lt;/font&gt;&lt;br&gt;&lt;font color=&quot;#000000&quot;&gt;du block&lt;/font&gt;&lt;br&gt;&lt;br&gt;&lt;b&gt;PHASE : CHANGE&lt;/b&gt;" style="rhombus;whiteSpace=wrap;html=1;fontColor=#990000;" vertex="1" parent="1">
          <mxGeometry x="472.5" y="1070" width="185" height="180" as="geometry" />
        </mxCell>
      </root>
    </mxGraphModel>
  </diagram>
</mxfile>
